<?xml version="1.0" encoding="UTF-8"?>
<svg xmlns="http://www.w3.org/2000/svg" xmlns:xlink="http://www.w3.org/1999/xlink" width="148pt" height="149pt" viewBox="0 0 148 149" version="1.1">
<g id="surface1">
<path style=" stroke:none;fill-rule:nonzero;fill:rgb(97.647059%,97.647059%,97.647059%);fill-opacity:1;" d="M 147.804688 147.480469 L 0.0351562 147.480469 L 0.0351562 1.617188 L 147.804688 1.617188 Z M 2.597656 144.859375 L 145.167969 144.859375 L 145.167969 4.238281 L 2.597656 4.238281 Z M 2.597656 144.859375 "/>
<path style=" stroke:none;fill-rule:nonzero;fill:rgb(97.647059%,97.647059%,97.647059%);fill-opacity:1;" d="M 122.078125 85.246094 C 118.402344 78.414062 110.914062 75.859375 110.011719 75.515625 C 110.011719 75.515625 117.984375 72.894531 119.789062 63.714844 C 119.789062 63.714844 121.9375 55.710938 116.183594 48.949219 C 116.183594 48.949219 112.578125 43.085938 99.886719 41.914062 C 99.886719 41.914062 96.144531 41.5 93.855469 41.429688 C 91.566406 41.359375 80.609375 41.359375 80.609375 41.359375 L 80.609375 88.003906 L 46.148438 41.5 L 39.835938 41.5 L 80.609375 96.421875 L 80.609375 102.839844 L 34.773438 41.429688 L 29.988281 41.429688 L 29.988281 112.085938 L 35.398438 112.085938 L 35.398438 50.953125 L 81.304688 112.429688 L 86.089844 112.429688 L 86.089844 46.605469 C 86.089844 46.605469 97.113281 45.777344 106.542969 48.8125 C 106.542969 48.8125 114.796875 51.019531 114.519531 60.199219 C 114.519531 60.199219 115.417969 69.097656 104.878906 71.925781 C 104.878906 71.925781 98.5 73.582031 93.230469 73.308594 L 93.230469 78.414062 C 93.230469 78.414062 102.730469 78.34375 105.851562 79.308594 C 105.851562 79.308594 113.617188 80.757812 117.085938 86.96875 C 117.085938 86.96875 120.828125 93.25 115.765625 100.355469 C 115.765625 100.355469 112.644531 104.703125 105.851562 106.152344 C 105.851562 106.152344 103.492188 107.324219 93.300781 107.117188 L 93.300781 112.222656 C 93.300781 112.222656 102.453125 112.707031 108.207031 110.84375 C 114.03125 109.117188 120.273438 106.082031 122.839844 98.835938 C 122.699219 98.976562 125.75 92.074219 122.078125 85.246094 Z M 122.078125 85.246094 "/>
</g>
</svg>
